<?xml version="1.0" standalone="no"?>
<!DOCTYPE svg PUBLIC "-//W3C//DTD SVG 20010904//EN"
 "http://www.w3.org/TR/2001/REC-SVG-20010904/DTD/svg10.dtd">
<svg version="1.0" xmlns="http://www.w3.org/2000/svg"
 width="512.000000pt" height="512.000000pt" viewBox="0 0 512.000000 512.000000"
 preserveAspectRatio="xMidYMid meet">
  <g transform="translate(0.000000,512.000000) scale(0.100000,-0.100000)"
  fill="currentColor" stroke="currentColor">
    <path d="M4680 5114 c-200 -23 -320 -51 -460 -105 l-82 -31 7 -32 c51 -245 62
    -543 25 -721 -6 -31 -9 -59 -7 -62 3 -3 28 0 56 6 173 37 434 33 654 -9 55
    -11 102 -18 105 -16 12 12 67 164 87 241 39 153 49 241 50 440 0 285 -1 286
    -245 290 -85 2 -171 1 -190 -1z"/>
    <path d="M3575 5034 c-196 -35 -378 -99 -519 -182 -79 -48 -206 -146 -206
    -160 0 -5 28 -55 63 -113 34 -57 89 -162 122 -232 l60 -128 45 6 c25 3 81 11
    125 17 90 13 486 16 556 5 56 -9 54 -14 71 160 13 140 2 311 -32 470 -21 103
    -41 147 -69 163 -27 14 -119 11 -216 -6z"/>
    <path d="M2266 4616 c-157 -81 -304 -173 -421 -267 -90 -71 -218 -192 -246
    -230 l-19 -27 73 -109 c107 -158 166 -271 251 -477 l16 -39 49 69 c180 257
    464 472 769 584 34 12 62 24 62 26 0 2 -18 42 -40 90 -78 169 -216 394 -266
    433 -15 12 -40 21 -56 21 -16 0 -91 -32 -172 -74z"/>
    <path d="M1106 4050 c-39 -12 -66 -39 -148 -145 -172 -220 -306 -502 -371
    -780 -229 -968 245 -1958 1143 -2389 722 -347 1585 -248 2212 252 97 77 114
    109 110 194 -3 38 -56 95 -161 171 -189 138 -383 239 -589 307 -121 40 -343
    90 -398 90 -53 0 -58 12 -31 66 64 126 125 357 148 552 6 60 10 193 8 320 -4
    197 -6 220 -25 252 -48 83 -118 96 -448 87 -272 -7 -484 -48 -675 -128 -53
    -22 -103 -41 -110 -42 -11 -2 -18 19 -27 84 -30 225 -113 478 -224 687 -87
    162 -237 370 -293 406 -30 20 -86 27 -121 16z"/>
    <path d="M3278 3945 c-411 -56 -712 -195 -938 -431 -71 -75 -177 -211 -169
    -218 2 -2 45 4 94 12 65 11 167 15 370 16 285 1 377 -7 480 -41 66 -22 145
    -100 169 -168 26 -79 46 -283 46 -485 0 -168 -5 -242 -26 -397 -4 -34 -3 -53
    4 -53 21 0 193 142 261 217 208 228 337 532 381 903 13 110 16 389 5 504 -10
    103 -36 135 -116 147 -87 12 -455 8 -561 -6z"/>
    <path d="M4380 3894 c-19 -3 -59 -9 -88 -15 l-52 -11 7 -51 c14 -92 7 -483
    -10 -606 -9 -63 -16 -116 -14 -117 1 -1 44 -20 96 -43 96 -43 214 -107 309
    -167 29 -19 57 -34 62 -34 20 0 138 163 188 258 90 173 156 404 169 587 5 71
    3 83 -15 106 -24 29 -84 49 -227 74 -88 16 -356 28 -425 19z"/>
    <path d="M4111 2713 c-40 -105 -103 -227 -180 -343 -68 -104 -264 -304 -379
    -389 -67 -49 -80 -62 -65 -68 140 -51 345 -158 496 -260 l109 -73 47 40 c95
    79 235 248 346 419 85 129 205 365 205 402 0 40 -38 79 -148 150 -87 57 -372
    209 -391 209 -4 0 -22 -39 -40 -87z"/>
    <path d="M428 643 c-218 -219 -403 -412 -412 -430 -35 -71 -4 -161 67 -194 54
    -24 81 -24 131 1 27 13 181 159 436 415 l394 394 -104 106 c-58 57 -107 105
    -110 105 -3 0 -184 -179 -402 -397z"/>
  </g>
</svg>
